<?xml version="1.0" encoding="UTF-8" standalone="no"?>
<svg width="157px" height="34px" viewBox="0 0 157 34" version="1.1" xmlns="http://www.w3.org/2000/svg" xmlns:xlink="http://www.w3.org/1999/xlink" xmlns:sketch="http://www.bohemiancoding.com/sketch/ns">
    <!-- Generator: Sketch 3.2.2 (9983) - http://www.bohemiancoding.com/sketch -->
    <title>Imported Layers 2</title>
    <desc>Created with Sketch.</desc>
    <defs></defs>
    <g id="enterprise_cloud" stroke="none" stroke-width="1" fill="none" fill-rule="evenodd" sketch:type="MSPage">
        <g id="index" sketch:type="MSArtboardGroup" transform="translate(-163.000000, -639.000000)">
            <g id="Imported-Layers-2" sketch:type="MSLayerGroup" transform="translate(163.000000, 639.500000)">
                <path d="M20.1032184,19.0839452 L25.4312931,22.1656027 L20.1032184,25.2486164 L20.1032184,19.0839452" id="Fill-1" fill="#57B382" sketch:type="MSShapeGroup"></path>
                <path d="M20.5241408,18.3570411 L25.8490575,15.2753836 L25.8490575,21.4346301 L20.5241408,18.3570411" id="Fill-2" fill="#57B382" sketch:type="MSShapeGroup"></path>
                <path d="M20.1032184,11.4627534 L25.4312931,14.5439589 L20.1032184,17.6283288 L20.1032184,11.4627534" id="Fill-3" fill="#57B382" sketch:type="MSShapeGroup"></path>
                <path d="M0.764247126,6.92367123 L6.08826149,3.84110959 L6.08826149,10.0048767 L0.764247126,6.92367123" id="Fill-4" fill="#57B382" sketch:type="MSShapeGroup"></path>
                <path d="M0.341520115,7.65193151 L5.66779023,10.7349452 L0.341520115,13.8143425 L0.341520115,7.65193151" id="Fill-5" fill="#57B382" sketch:type="MSShapeGroup"></path>
                <path d="M0.341520115,15.2740274 L5.66914368,18.3570411 L0.341520115,21.4391507 L0.341520115,15.2740274" id="Fill-6" fill="#57B382" sketch:type="MSShapeGroup"></path>
                <path d="M20.1032184,3.83930137 L25.4321954,6.92367123 L20.1032184,10.007137 L20.1032184,3.83930137" id="Fill-7" fill="#57B382" sketch:type="MSShapeGroup"></path>
                <path d="M20.5241408,10.7349452 L25.8490575,7.65554795 L25.8490575,13.8143425 L20.5241408,10.7349452" id="Fill-8" fill="#57B382" sketch:type="MSShapeGroup"></path>
                <path d="M13.936908,6.92367123 L19.2640805,3.84110959 L19.2640805,10.0035205 L13.936908,6.92367123" id="Fill-9" fill="#57B382" sketch:type="MSShapeGroup"></path>
                <path d="M13.936908,22.1633425 L19.2640805,19.0839452 L19.2640805,25.2459041 L13.936908,22.1633425" id="Fill-10" fill="#57B382" sketch:type="MSShapeGroup"></path>
                <path d="M7.34922414,3.11239726 L12.6750431,0.030739726 L12.6750431,6.19315068 L7.34922414,3.11239726" id="Fill-11" fill="#57B382" sketch:type="MSShapeGroup"></path>
                <path d="M13.5137299,0.0298356164 L18.8436092,3.11239726 L13.5137299,6.19541096 L13.5137299,0.0298356164" id="Fill-12" fill="#57B382" sketch:type="MSShapeGroup"></path>
                <path d="M13.5137299,22.8956712 L18.8436092,25.9773288 L13.5137299,29.0598904 L13.5137299,22.8956712" id="Fill-13" fill="#57B382" sketch:type="MSShapeGroup"></path>
                <path d="M13.936908,29.7895068 L19.2640805,26.7069452 L19.2640805,32.8698082 L13.936908,29.7895068" id="Fill-14" fill="#57B382" sketch:type="MSShapeGroup"></path>
                <path d="M6.92604598,19.0839452 L12.2563764,22.1656027 L6.92604598,25.2486164 L6.92604598,19.0839452" id="Fill-15" fill="#57B382" sketch:type="MSShapeGroup"></path>
                <path d="M6.92604598,3.8370411 L12.2563764,6.92186301 L6.92604598,10.0035205 L6.92604598,3.8370411" id="Fill-16" fill="#57B382" sketch:type="MSShapeGroup"></path>
                <path d="M0.761991379,14.5439589 L6.08826149,11.4659178 L6.08826149,17.6247123 L0.761991379,14.5439589" id="Fill-17" fill="#57B382" sketch:type="MSShapeGroup"></path>
                <path d="M0.764247126,22.1656027 L6.08826149,19.0857534 L6.08826149,25.2486164 L0.764247126,22.1656027" id="Fill-18" fill="#57B382" sketch:type="MSShapeGroup"></path>
                <path d="M7.34922414,25.9786849 L12.6750431,22.8956712 L12.6750431,29.0598904 L7.34922414,25.9786849" id="Fill-19" fill="#57B382" sketch:type="MSShapeGroup"></path>
                <path d="M42.7184368,18.7869452 C42.7184368,19.8953836 41.3225805,21.2470274 40.0945517,21.8984384 C41.1547529,22.431863 41.7308707,22.745137 42.2379626,23.0819178 C42.6227931,23.3219589 42.74325,23.5412055 42.5988822,23.949411 C42.5014339,24.2644932 42.0205086,24.964726 41.6600402,24.964726 C41.3704023,24.964726 41.2016724,24.8670822 40.7676667,24.5542603 C40.0462787,24.0972329 38.5051523,23.1302877 36.7465718,22.4051918 C35.204092,21.7790959 33.2785862,20.113274 33.2785862,18.7869452 L33.2785862,10.2928356 C33.2785862,8.62610959 36.3603879,6.38075342 37.9750517,6.38075342 C39.6361839,6.38075342 42.7184368,8.62610959 42.7184368,10.2928356 L42.7184368,18.7869452 L42.7184368,18.7869452 Z M35.6615575,18.471863 C35.6615575,19.3167534 37.2274971,20.4744658 37.9750517,20.4744658 C38.7690747,20.4744658 40.3350144,19.3167534 40.3350144,18.471863 L40.3350144,10.6038493 C40.3350144,9.75941096 38.7934368,8.60260274 37.9750517,8.60260274 C37.2274971,8.60260274 35.6615575,9.75941096 35.6615575,10.6038493 L35.6615575,18.471863 L35.6615575,18.471863 Z" id="Fill-20" fill="#FFFFFF" sketch:type="MSShapeGroup"></path>
                <path d="M47.8710144,21.9477123 C47.8710144,22.2374795 47.6549138,22.4797808 47.3409138,22.4797808 L46.0176925,22.4797808 C45.7267011,22.4797808 45.487592,22.2374795 45.487592,21.9477123 L45.487592,7.12980822 C45.487592,6.84049315 45.7267011,6.6 46.0176925,6.6 L47.3409138,6.6 C47.6549138,6.6 47.8710144,6.84049315 47.8710144,7.12980822 L47.8710144,21.9477123" id="Fill-21" fill="#FFFFFF" sketch:type="MSShapeGroup"></path>
                <path d="M53.2175862,11.8112877 L53.2175862,21.9477123 C53.2175862,22.2618904 52.9771236,22.4797808 52.6405661,22.4797808 L51.4350948,22.4797808 C51.1463592,22.4797808 50.8824368,22.2618904 50.8824368,21.9477123 L50.8824368,7.12980822 C50.8824368,6.84049315 51.1463592,6.6 51.4350948,6.6 L52.4465718,6.6 C52.8323046,6.6 53.0010345,6.79212329 53.1936753,7.12980822 L58.0588707,17.3620685 L58.0588707,7.12980822 C58.0588707,6.81517808 58.2754224,6.6 58.5898736,6.6 L59.8174511,6.6 C60.1314511,6.6 60.3710115,6.81517808 60.3710115,7.12980822 L60.3710115,21.9477123 C60.3710115,22.2618904 60.1314511,22.4797808 59.8174511,22.4797808 L58.8307874,22.4797808 C58.4685144,22.4797808 58.2266983,22.2126164 58.0823305,21.9477123 L53.2175862,11.8112877" id="Fill-22" fill="#FFFFFF" sketch:type="MSShapeGroup"></path>
                <path d="M68.2936466,13.9106301 C68.2936466,13.620863 68.5584713,13.3803699 68.8463046,13.3803699 L71.7859943,13.3803699 C72.0995431,13.3803699 72.5561063,13.8387534 72.5561063,14.1280685 L72.5561063,18.7869452 C72.5561063,20.4030411 69.5225776,22.695863 67.8596408,22.695863 C66.2458793,22.695863 63.1383621,20.4030411 63.1383621,18.7869452 L63.1383621,10.2928356 C63.1383621,8.62610959 66.2702414,6.38075342 67.8596408,6.38075342 C68.8954799,6.38075342 70.4370575,7.17727397 71.5685402,7.87886301 C71.8581782,8.04838356 71.9547241,8.38561644 71.8090029,8.67312329 L71.4007126,9.47009589 C71.2558937,9.73635616 70.8701609,9.83354795 70.5570632,9.66447945 C69.6904052,9.20473973 68.5097471,8.60260274 67.8596408,8.60260274 C67.1378017,8.60260274 65.5231379,9.75941096 65.5231379,10.6038493 L65.5231379,18.471863 C65.5231379,19.2932466 67.1134397,20.4744658 67.8596408,20.4744658 C68.5823822,20.4744658 70.1726839,19.2683836 70.1726839,18.471863 L70.1726839,15.4801644 L68.8463046,15.4801644 C68.5584713,15.4801644 68.2936466,15.237411 68.2936466,14.949 L68.2936466,13.9106301" id="Fill-23" fill="#FFFFFF" sketch:type="MSShapeGroup"></path>
                <path d="M77.1312126,18.471863 C77.1312126,19.3425205 78.792796,20.4979726 79.4442557,20.4979726 C80.118273,20.4979726 81.1049368,19.9686164 81.9724971,19.4858219 C82.3099569,19.3167534 82.7191494,19.4139452 82.8644195,19.7285753 L83.2487989,20.5241918 C83.3931667,20.8383699 83.2970718,21.1765068 83.0326983,21.3198082 C81.9242241,21.9956301 80.5757385,22.695863 79.4442557,22.695863 C77.8774138,22.695863 74.7477902,20.5495068 74.7477902,18.7869452 L74.7477902,10.2928356 C74.7477902,8.57909589 77.8535029,6.38075342 79.4677155,6.38075342 C80.4791925,6.38075342 81.8755,7.08369863 83.0078851,7.73330137 C83.2970718,7.87886301 83.3931667,8.26356164 83.2253391,8.55378082 L82.8644195,9.32589041 C82.7191494,9.61610959 82.3334167,9.7110411 82.0212213,9.54287671 C81.1536609,9.10890411 80.1421839,8.57909589 79.4677155,8.57909589 C78.792796,8.57909589 77.1312126,9.73635616 77.1312126,10.6038493 L77.1312126,18.471863" id="Fill-24" fill="#FFFFFF" sketch:type="MSShapeGroup"></path>
                <path d="M85.2713017,21.4888767 L85.2713017,7.12980822 C85.2713017,6.84049315 85.5356753,6.6 85.8253132,6.6 L87.0781552,6.6 C87.3894483,6.6 87.654273,6.84049315 87.654273,7.12980822 L87.654273,20.3790822 L92.1838132,20.3790822 C92.4960086,20.3790822 92.7382759,20.6200274 92.7382759,20.9088904 L92.7382759,21.9477123 C92.7382759,22.2374795 92.4960086,22.4797808 92.1838132,22.4797808 L86.2096925,22.4797808 C85.8726839,22.4797808 85.2713017,21.8026027 85.2713017,21.4888767" id="Fill-25" fill="#FFFFFF" sketch:type="MSShapeGroup"></path>
                <path d="M103.189603,18.7869452 C103.189603,20.4509589 100.106448,22.695863 98.4444138,22.695863 C96.8302011,22.695863 93.7474971,20.4744658 93.7474971,18.7869452 L93.7474971,10.2928356 C93.7474971,8.62610959 96.8302011,6.38075342 98.4444138,6.38075342 C100.106448,6.38075342 103.189603,8.62610959 103.189603,10.2928356 L103.189603,18.7869452 L103.189603,18.7869452 Z M96.132273,18.471863 C96.132273,19.3167534 97.6968592,20.4744658 98.4444138,20.4744658 C99.2393391,20.4744658 100.804828,19.3167534 100.804828,18.471863 L100.804828,10.6038493 C100.804828,9.75941096 99.2637011,8.60260274 98.4444138,8.60260274 C97.6968592,8.60260274 96.132273,9.75941096 96.132273,10.6038493 L96.132273,18.471863 L96.132273,18.471863 Z" id="Fill-26" fill="#FFFFFF" sketch:type="MSShapeGroup"></path>
                <path d="M110.533414,22.695863 C108.942661,22.695863 105.837399,20.5495068 105.837399,18.8090959 L105.837399,7.12980822 C105.837399,6.84049315 106.100871,6.6 106.39096,6.6 L107.667261,6.6 C107.979457,6.6 108.21992,6.84049315 108.21992,7.12980822 L108.21992,18.496726 C108.21992,19.3425205 109.787213,20.4979726 110.533414,20.4979726 C111.280968,20.4979726 112.845103,19.3425205 112.845103,18.496726 L112.845103,7.12980822 C112.845103,6.84049315 113.062557,6.6 113.353098,6.6 L114.675417,6.6 C114.965957,6.6 115.23033,6.84049315 115.23033,7.12980822 L115.23033,18.8090959 C115.23033,20.4979726 112.123264,22.695863 110.533414,22.695863" id="Fill-27" fill="#FFFFFF" sketch:type="MSShapeGroup"></path>
                <path d="M127.366701,18.7385753 C127.366701,20.1860548 124.668828,22.4797808 123.031606,22.4797808 L119.273983,22.4797808 C118.599063,22.4797808 118.119491,22.0675068 118.119491,21.5856164 L118.119491,7.54072603 C118.119491,7.03306849 118.648239,6.6 119.273983,6.6 L122.984236,6.6 C124.668828,6.6 127.366701,8.72330137 127.366701,10.3393973 L127.366701,18.7385753 L127.366701,18.7385753 Z M124.981925,10.6770822 C124.981925,9.88010959 123.537345,8.67312329 122.670687,8.67312329 L120.503365,8.67312329 L120.503365,20.4030411 L122.719862,20.4030411 C123.561707,20.4030411 124.981925,19.1743562 124.981925,18.4013425 L124.981925,10.6770822 L124.981925,10.6770822 Z" id="Fill-28" fill="#FFFFFF" sketch:type="MSShapeGroup"></path>
                <path d="M145.530879,8.91226027 L156.297109,8.91226027 C156.449598,8.91226027 156.574566,8.78794521 156.574566,8.63469863 L156.574566,7.42047945 C156.574566,7.2690411 156.449598,7.14291781 156.297109,7.14291781 L145.530879,7.14291781 C145.37794,7.14291781 145.254776,7.2690411 145.254776,7.42047945 L145.254776,8.63469863 C145.254776,8.78794521 145.37794,8.91226027 145.530879,8.91226027" id="Fill-29" fill="#FFFFFF" sketch:type="MSShapeGroup"></path>
                <path d="M156.490201,12.0418356 L145.334178,12.0418356 C145.18169,12.0418356 145.057624,12.1679589 145.057624,12.3207534 L145.057624,13.5349726 C145.057624,13.6855068 145.18169,13.8125342 145.334178,13.8125342 L146.880718,13.8125342 L145.643667,20.7149589 C145.574641,21.0969452 145.814201,21.466726 146.190009,21.5566849 L150.741204,22.6741644 C150.797598,22.6886301 150.856247,22.695863 150.915799,22.695863 C150.973546,22.695863 151.031744,22.6886301 151.088589,22.6741644 L155.63798,21.5566849 C155.965966,21.4775753 156.195601,21.1814795 156.195601,20.8442466 L156.195601,16.5135616 C156.195601,16.3607671 156.071534,16.2364521 155.919497,16.2364521 L154.606201,16.2364521 C154.454615,16.2364521 154.330098,16.3607671 154.330098,16.5135616 L154.330098,20.1648082 L151.201376,20.9342055 C151.105733,20.9559041 151.011443,20.9685616 150.915799,20.9685616 C150.819704,20.9685616 150.723158,20.9559041 150.62977,20.9342055 L147.63098,20.1987123 L148.780057,13.8125342 L156.490201,13.8125342 C156.643592,13.8125342 156.767207,13.6855068 156.767207,13.5349726 L156.767207,12.3207534 C156.767207,12.1679589 156.643592,12.0418356 156.490201,12.0418356" id="Fill-30" fill="#FFFFFF" sketch:type="MSShapeGroup"></path>
                <path d="M142.822629,12.1919178 L137.852316,12.1919178 L137.852316,11.2109589 L141.991161,11.2109589 C142.144552,11.2109589 142.268167,11.0866438 142.268167,10.9347534 L142.268167,10.0211507 C142.268167,9.86745205 142.144552,9.74223288 141.991161,9.74223288 L137.852316,9.74223288 L137.852316,8.76263014 L142.238391,8.76263014 C142.390879,8.76263014 142.516299,8.63741096 142.516299,8.4859726 L142.516299,7.57056164 C142.516299,7.41821918 142.390879,7.29435616 142.238391,7.29435616 L137.852316,7.29435616 L137.852316,6.86264384 C137.852316,6.70758904 137.72825,6.58282192 137.576213,6.58282192 L136.263368,6.58282192 C136.109977,6.58282192 135.986813,6.70758904 135.986813,6.86264384 L135.986813,7.29435616 L131.599385,7.29435616 C131.445543,7.29435616 131.32283,7.41821918 131.32283,7.57056164 L131.32283,8.4859726 C131.32283,8.63741096 131.445543,8.76263014 131.599385,8.76263014 L135.986813,8.76263014 L135.986813,9.74223288 L131.846615,9.74223288 C131.694578,9.74223288 131.569609,9.86745205 131.569609,10.0211507 L131.569609,10.9347534 C131.569609,11.0866438 131.694578,11.2109589 131.846615,11.2109589 L135.986813,11.2109589 L135.986813,12.1919178 L131.017853,12.1919178 C130.863109,12.1919178 130.739494,12.317589 130.739494,12.4712877 L130.739494,13.3826301 C130.739494,13.5358767 130.863109,13.6601918 131.017853,13.6601918 L142.822629,13.6601918 C142.973313,13.6601918 143.099184,13.5358767 143.099184,13.3826301 L143.099184,12.4712877 C143.099184,12.317589 142.973313,12.1919178 142.822629,12.1919178" id="Fill-31" fill="#FFFFFF" sketch:type="MSShapeGroup"></path>
                <path d="M141.503468,14.6999178 L136.973928,14.3681096 C136.956333,14.3653973 136.937836,14.3653973 136.920241,14.3653973 C136.89227,14.3653973 136.89227,14.3653973 132.334759,14.6999178 C131.951733,14.7293014 131.654876,15.0470959 131.654876,15.4340548 L131.654876,22.2013151 C131.654876,22.3518493 131.779394,22.4797808 131.93098,22.4797808 L133.160362,22.4797808 C133.312399,22.4797808 133.437368,22.3518493 133.437368,22.2013151 L133.437368,20.7054658 L140.40131,20.7054658 L140.40131,22.2013151 C140.40131,22.3518493 140.525376,22.4797808 140.677414,22.4797808 L141.906345,22.4797808 C142.057931,22.4797808 142.182899,22.3518493 142.182899,22.2013151 L142.182899,15.4340548 C142.182899,15.0470959 141.887397,14.7293014 141.503468,14.6999178 L141.503468,14.6999178 Z M140.40131,16.0917945 L140.40131,16.8729452 L133.437368,16.8729452 L133.437368,16.0917945 C134.650057,16.0022877 136.577819,15.8598904 136.920241,15.8368356 L140.40131,16.0917945 L140.40131,16.0917945 Z M133.437368,18.3407671 L140.40131,18.3407671 L140.40131,19.2362877 L133.437368,19.2362877 L133.437368,18.3407671 Z" id="Fill-32" fill="#FFFFFF" sketch:type="MSShapeGroup"></path>
            </g>
        </g>
    </g>
</svg>